<svg width="206" height="80" viewBox="0 0 206 80" fill="none" xmlns="http://www.w3.org/2000/svg">
<path d="M39.0017 52.6673V63.5003L58 52.5269V41.6952L39.0017 52.6673Z" fill="#2947A9"/>
<path d="M47.5062 31.745L56.8802 26.3284L39.0017 16V26.8328L47.5062 31.745Z" fill="#0B267D"/>
<path d="M31.6182 34.9795V45.8158L39.0015 50.0795V39.2481L31.6182 34.9795Z" fill="#91A1D4"/>
<path d="M58 28.2701L39.0017 39.2481V50.0795L58 39.1061V28.2701Z" fill="#2947A9"/>
<path d="M21.1313 26.3221L30.4492 31.7703L39.0014 26.8328V16L21.1313 26.3221Z" fill="#2947A9"/>
<path d="M29.3772 47.1103V33.68L20 28.2652V52.5266L39.0014 63.5V52.6669L29.3772 47.1103Z" fill="#91A1D4"/>
<path d="M93.57 30.2L92.64 34.19H86.25L82.59 50H77.43L81.09 34.19H74.64L75.57 30.2H93.57ZM91.2188 50L96.1688 28.64H101.269L99.0188 38.42L98.5088 39.14C98.7688 38.3 99.1588 37.55 99.6788 36.89C100.199 36.23 100.849 35.7 101.629 35.3C102.409 34.9 103.299 34.7 104.299 34.7C105.299 34.7 106.149 34.93 106.849 35.39C107.569 35.85 108.069 36.5 108.349 37.34C108.649 38.18 108.669 39.18 108.409 40.34L106.159 50H101.059L103.129 41.15C103.309 40.35 103.239 39.73 102.919 39.29C102.599 38.83 102.079 38.6 101.359 38.6C100.819 38.6 100.339 38.73 99.9188 38.99C99.5188 39.23 99.1688 39.6 98.8688 40.1C98.5888 40.58 98.3688 41.18 98.2088 41.9L96.3188 50H91.2188ZM117.96 50.27C116.48 50.27 115.18 49.99 114.06 49.43C112.94 48.85 112.07 48.05 111.45 47.03C110.83 46.01 110.52 44.82 110.52 43.46C110.52 41.78 110.86 40.29 111.54 38.99C112.24 37.67 113.22 36.63 114.48 35.87C115.76 35.11 117.28 34.73 119.04 34.73C120.5 34.73 121.74 35.01 122.76 35.57C123.8 36.11 124.59 36.88 125.13 37.88C125.67 38.88 125.94 40.06 125.94 41.42C125.94 41.8 125.92 42.2 125.88 42.62C125.84 43.04 125.76 43.45 125.64 43.85H113.82V41.09H122.31L120.9 41.87C120.98 41.59 121.03 41.35 121.05 41.15C121.07 40.95 121.08 40.76 121.08 40.58C121.08 40.06 120.99 39.63 120.81 39.29C120.63 38.95 120.38 38.7 120.06 38.54C119.74 38.36 119.36 38.27 118.92 38.27C118.2 38.27 117.6 38.44 117.12 38.78C116.66 39.12 116.29 39.57 116.01 40.13C115.73 40.67 115.53 41.26 115.41 41.9C115.31 42.54 115.26 43.16 115.26 43.76C115.26 44.4 115.38 44.94 115.62 45.38C115.88 45.82 116.22 46.16 116.64 46.4C117.08 46.62 117.59 46.73 118.17 46.73C118.89 46.73 119.47 46.57 119.91 46.25C120.35 45.91 120.69 45.49 120.93 44.99L125.13 46.64C124.79 47.4 124.26 48.05 123.54 48.59C122.84 49.13 122.01 49.55 121.05 49.85C120.11 50.13 119.08 50.27 117.96 50.27ZM129.151 50V30.2H138.781C141.221 30.22 143.021 30.69 144.181 31.61C145.341 32.51 145.921 33.82 145.921 35.54C145.921 36.66 145.591 37.63 144.931 38.45C144.271 39.25 143.261 39.76 141.901 39.98V40.01C143.421 40.21 144.551 40.74 145.291 41.6C146.051 42.44 146.431 43.46 146.431 44.66C146.431 46.36 145.831 47.68 144.631 48.62C143.431 49.54 141.631 50 139.231 50H129.151ZM134.131 46.37H138.361C139.301 46.37 140.001 46.18 140.461 45.8C140.921 45.42 141.151 44.87 141.151 44.15C141.151 43.45 140.921 42.92 140.461 42.56C140.001 42.18 139.301 41.99 138.361 41.99H134.131V46.37ZM134.131 38.3H137.881C139.721 38.3 140.641 37.58 140.641 36.14C140.641 34.7 139.721 33.98 137.881 33.98H134.131V38.3ZM156.439 34.7C158.019 34.7 159.399 35.01 160.579 35.63C161.779 36.23 162.709 37.12 163.369 38.3C164.049 39.46 164.389 40.86 164.389 42.5C164.389 44.14 164.049 45.55 163.369 46.73C162.709 47.89 161.779 48.78 160.579 49.4C159.399 50 158.019 50.3 156.439 50.3C154.899 50.3 153.529 50 152.329 49.4C151.129 48.78 150.189 47.89 149.509 46.73C148.849 45.55 148.519 44.14 148.519 42.5C148.519 40.86 148.849 39.46 149.509 38.3C150.189 37.12 151.129 36.23 152.329 35.63C153.529 35.01 154.899 34.7 156.439 34.7ZM156.439 38.33C155.859 38.33 155.359 38.47 154.939 38.75C154.519 39.03 154.199 39.48 153.979 40.1C153.759 40.72 153.649 41.52 153.649 42.5C153.649 43.48 153.759 44.28 153.979 44.9C154.199 45.5 154.519 45.95 154.939 46.25C155.359 46.53 155.859 46.67 156.439 46.67C157.039 46.67 157.549 46.53 157.969 46.25C158.389 45.95 158.709 45.5 158.929 44.9C159.149 44.28 159.259 43.48 159.259 42.5C159.259 41.52 159.149 40.72 158.929 40.1C158.709 39.48 158.389 39.03 157.969 38.75C157.549 38.47 157.039 38.33 156.439 38.33ZM170.847 35L174.507 41.75L176.187 41.6L182.097 50H176.247L172.467 43.16H170.697L164.967 35H170.847ZM181.977 35L176.307 43.1L174.417 42.98L170.487 50H164.757L170.787 41.54L172.527 41.78L176.247 35H181.977Z" fill="#2947A9"/>
</svg>
